mtllib ./stump.mtl
g Cube
v -2.408641 3.384144 2.72808
v -1.766016 13.38414 1.414355
v 0.8969779 13.94114 1.400284
v 2.408641 3.384144 2.72808
v -1.741929 13.38414 -0.4711673
v -2.408641 3.384144 -1.535878
v 2.408641 3.384144 -1.535878
v 0.4692033 13.38414 -1.326091
v -2.408641 3.384144 -1.535878
v -2.408641 3.384144 2.72808
v 2.408641 3.384144 2.72808
v 2.408641 3.384144 -1.535878
v 2.408641 3.384144 2.72808
v 0.8969779 13.94114 1.400284
v 0.4692033 13.38414 -1.326091
v 2.408641 3.384144 -1.535878
v -2.408641 3.384144 -1.535878
v -1.741929 13.38414 -0.4711673
v -1.766016 13.38414 1.414355
v -2.408641 3.384144 2.72808
v -1.766016 13.38414 1.414355
v -1.741929 13.38414 -0.4711673
v -2.408641 20.83214 -0.9977661
v -1.982793 20.83214 1.623715
v -1.741929 13.38414 -0.4711673
v 0.4692033 13.38414 -1.326091
v 1.540567 20.83214 -0.9977661
v -2.408641 20.83214 -0.9977661
v 0.4692033 13.38414 -1.326091
v 0.8969779 13.94114 1.400284
v 1.529006 20.83214 2.431309
v 1.540567 20.83214 -0.9977661
v 0.8969779 13.94114 1.400284
v -1.766016 13.38414 1.414355
v -1.982793 20.83214 1.623715
v 1.529006 20.83214 2.431309
v -1.982793 20.83214 1.623715
v -2.408641 20.83214 -0.9977661
v 1.540567 20.83214 -0.9977661
v 1.529006 20.83214 2.431309

vn -0.01160324 0.2878639 0.9574906
vn -0.01160324 0.2878639 0.9574906
vn -0.01160324 0.2878639 0.9574906
vn -0.01160324 0.2878639 0.9574906
vn -0.1956675 0.1123745 -0.9401879
vn -0.1956675 0.1123745 -0.9401879
vn -0.1956675 0.1123745 -0.9401879
vn -0.1956675 0.1123745 -0.9401879
vn 0 -1 0
vn 0 -1 0
vn 0 -1 0
vn 0 -1 0
vn 0.9394544 0.3183341 -0.0783753
vn 0.9394544 0.3183341 -0.0783753
vn 0.9394544 0.3183341 -0.0783753
vn 0.9394544 0.3183341 -0.0783753
vn -0.9908735 0.1344936 -0.005601862
vn -0.9908735 0.1344936 -0.005601862
vn -0.9908735 0.1344936 -0.005601862
vn -0.9908735 0.1344936 -0.005601862
vn -0.9864339 -0.1178394 0.06502825
vn -0.9864339 -0.1178394 0.06502825
vn -0.9864339 -0.1178394 0.06502825
vn -0.9864339 -0.1178394 0.06502825
vn -0.1954577 -0.01799645 -0.9427637
vn -0.1954577 -0.01799645 -0.9427637
vn -0.1954577 -0.01799645 -0.9427637
vn -0.1954577 -0.01799645 -0.9427637
vn 0.9694178 -0.2229921 -0.05672555
vn 0.9694178 -0.2229921 -0.05672555
vn 0.9694178 -0.2229921 -0.05672555
vn 0.9694178 -0.2229921 -0.05672555
vn -0.1099853 -0.190348 0.9580687
vn -0.1099853 -0.190348 0.9580687
vn -0.1099853 -0.190348 0.9580687
vn -0.1099853 -0.190348 0.9580687
vn 0 1 0
vn 0 1 0
vn 0 1 0
vn 0 1 0

vt 0 0
vt 0 1
vt 1 1
vt 1 0
vt 0 0
vt 0 1
vt 1 1
vt 1 0
vt 0 0
vt 0 1
vt 1 1
vt 1 0
vt 0 0
vt 0 1
vt 1 1
vt 1 0
vt 0 0
vt 0 1
vt 1 1
vt 1 0
vt 0 1
vt 0 0
vt 0 1
vt 0 0
vt 1 1
vt 0 1
vt 1 1
vt 0 1
vt 1 0
vt 1 1
vt 1 0
vt 1 1
vt 0 0
vt 1 0
vt 0 0
vt 1 0
vt 0 0
vt 0 1
vt 1 1
vt 1 0

usemtl Standard(Clone)
usemap Standard(Clone)
f 2/2/2 1/1/1 3/3/3
f 1/1/1 4/4/4 3/3/3
f 6/6/6 5/5/5 7/7/7
f 5/5/5 8/8/8 7/7/7
f 10/10/10 9/9/9 11/11/11
f 9/9/9 12/12/12 11/11/11
f 14/14/14 13/13/13 15/15/15
f 13/13/13 16/16/16 15/15/15
f 18/18/18 17/17/17 19/19/19
f 17/17/17 20/20/20 19/19/19
f 22/22/22 21/21/21 23/23/23
f 21/21/21 24/24/24 23/23/23
f 26/26/26 25/25/25 27/27/27
f 25/25/25 28/28/28 27/27/27
f 30/30/30 29/29/29 31/31/31
f 29/29/29 32/32/32 31/31/31
f 34/34/34 33/33/33 35/35/35
f 33/33/33 36/36/36 35/35/35
f 38/38/38 37/37/37 39/39/39
f 37/37/37 40/40/40 39/39/39
